<mxfile host="app.diagrams.net" modified="2024-02-26T10:26:45.117Z" agent="Mozilla/5.0 (Windows NT 10.0; Win64; x64; rv:122.0) Gecko/20100101 Firefox/122.0" etag="EOmOmLlBJGGlVDcMYh0m" version="23.1.6" type="device">
  <diagram name="Strona-1" id="HdpCKr-F5oI3CnUWQ6Np">
    <mxGraphModel dx="819" dy="447" grid="1" gridSize="10" guides="1" tooltips="1" connect="1" arrows="1" fold="1" page="1" pageScale="1" pageWidth="827" pageHeight="1169" math="0" shadow="0">
      <root>
        <mxCell id="0" />
        <mxCell id="1" parent="0" />
        <mxCell id="pfAKt-iuLO9bsamYte_X-1" value="osoba" style="html=1;whiteSpace=wrap;" vertex="1" parent="1">
          <mxGeometry x="359" y="220" width="110" height="50" as="geometry" />
        </mxCell>
        <mxCell id="pfAKt-iuLO9bsamYte_X-2" value="student" style="html=1;whiteSpace=wrap;" vertex="1" parent="1">
          <mxGeometry x="360" y="350" width="110" height="50" as="geometry" />
        </mxCell>
        <mxCell id="pfAKt-iuLO9bsamYte_X-3" value="" style="endArrow=block;endSize=16;endFill=0;html=1;rounded=0;" edge="1" parent="1" source="pfAKt-iuLO9bsamYte_X-2" target="pfAKt-iuLO9bsamYte_X-1">
          <mxGeometry width="160" relative="1" as="geometry">
            <mxPoint x="407.99684210526294" y="360" as="sourcePoint" />
            <mxPoint x="419.0199999999998" y="290" as="targetPoint" />
          </mxGeometry>
        </mxCell>
        <mxCell id="pfAKt-iuLO9bsamYte_X-4" value="wykad" style="html=1;whiteSpace=wrap;" vertex="1" parent="1">
          <mxGeometry x="170" y="350" width="110" height="50" as="geometry" />
        </mxCell>
        <mxCell id="pfAKt-iuLO9bsamYte_X-5" value="uczelnia" style="html=1;whiteSpace=wrap;" vertex="1" parent="1">
          <mxGeometry x="580" y="350" width="110" height="50" as="geometry" />
        </mxCell>
        <mxCell id="pfAKt-iuLO9bsamYte_X-6" value="0..1" style="endArrow=diamondThin;endFill=1;endSize=24;html=1;rounded=0;" edge="1" parent="1" source="pfAKt-iuLO9bsamYte_X-2" target="pfAKt-iuLO9bsamYte_X-5">
          <mxGeometry x="0.5556" y="15" width="160" relative="1" as="geometry">
            <mxPoint x="430" y="370" as="sourcePoint" />
            <mxPoint x="560" y="370" as="targetPoint" />
            <mxPoint as="offset" />
          </mxGeometry>
        </mxCell>
        <mxCell id="pfAKt-iuLO9bsamYte_X-11" value="0..*" style="edgeLabel;html=1;align=center;verticalAlign=middle;resizable=0;points=[];" vertex="1" connectable="0" parent="pfAKt-iuLO9bsamYte_X-6">
          <mxGeometry x="-0.2603" y="-2" relative="1" as="geometry">
            <mxPoint x="-23" y="-17" as="offset" />
          </mxGeometry>
        </mxCell>
        <mxCell id="pfAKt-iuLO9bsamYte_X-7" value="" style="endArrow=none;html=1;edgeStyle=orthogonalEdgeStyle;rounded=0;" edge="1" parent="1" source="pfAKt-iuLO9bsamYte_X-4" target="pfAKt-iuLO9bsamYte_X-2">
          <mxGeometry relative="1" as="geometry">
            <mxPoint x="230" y="320" as="sourcePoint" />
            <mxPoint x="390" y="320" as="targetPoint" />
          </mxGeometry>
        </mxCell>
        <mxCell id="pfAKt-iuLO9bsamYte_X-8" value="0..*" style="edgeLabel;resizable=0;html=1;align=left;verticalAlign=bottom;" connectable="0" vertex="1" parent="pfAKt-iuLO9bsamYte_X-7">
          <mxGeometry x="-1" relative="1" as="geometry" />
        </mxCell>
        <mxCell id="pfAKt-iuLO9bsamYte_X-9" value="0..300" style="edgeLabel;resizable=0;html=1;align=right;verticalAlign=bottom;" connectable="0" vertex="1" parent="pfAKt-iuLO9bsamYte_X-7">
          <mxGeometry x="1" relative="1" as="geometry" />
        </mxCell>
      </root>
    </mxGraphModel>
  </diagram>
</mxfile>
